<?xml version="1.0" encoding="utf-8"?>
<!-- Generator: Adobe Illustrator 16.2.0, SVG Export Plug-In . SVG Version: 6.00 Build 0)  -->
<!DOCTYPE svg PUBLIC "-//W3C//DTD SVG 1.1//EN" "http://www.w3.org/Graphics/SVG/1.1/DTD/svg11.dtd">
<svg version="1.1" id="Слой_1" xmlns="http://www.w3.org/2000/svg" xmlns:xlink="http://www.w3.org/1999/xlink" x="0px" y="0px"
	 width="35px" height="24px" viewBox="219.5 183 35 24" enable-background="new 219.5 183 35 24" xml:space="preserve">
<g id="Слой_1_1_" display="none">
	<g display="inline">
		<g>
			<g>
				<defs>
					<rect id="SVGID_1_" x="40" y="-8" width="393.84" height="394.8"/>
				</defs>
				<clipPath id="SVGID_2_">
					<use xlink:href="#SVGID_1_"  overflow="visible"/>
				</clipPath>
				<path clip-path="url(#SVGID_2_)" fill="#272727" d="M332.266,385.842c19.68,0,35.521-6.801,48.402-20.801l0.32-0.32
					c4.559-5.521,9.758-10.48,15.199-15.762c3.68-3.599,7.52-7.277,11.121-11.039c16.879-17.604,16.797-39.922-0.16-56.961
					l-47.441-47.438c-8.078-8.401-17.762-12.883-27.922-12.883c-10.156,0-19.84,4.402-28.156,12.723L275.387,261.6
					c-2.559-1.52-5.199-2.801-7.758-4.078c-3.121-1.602-6.082-3.043-8.723-4.723c-25.758-16.32-49.121-37.68-71.438-65.117
					c-11.281-14.242-18.801-26.242-24.082-38.48c7.359-6.723,14.32-13.68,20.961-20.48c2.398-2.48,4.8-4.879,7.281-7.36
					c8.559-8.562,13.117-18.479,13.117-28.562c0-10.078-4.558-19.918-13.117-28.559l-23.524-23.52
					c-2.718-2.723-5.437-5.442-8.078-8.16c-5.199-5.359-10.64-10.879-16-15.84C135.945,8.639,126.348,4.4,116.266,4.4
					c-10.078,0-19.758,4.239-28.161,12.321L58.508,46.24c-10.723,10.72-16.801,23.841-18.16,38.962
					c-1.52,18.879,1.918,38.957,10.961,63.277c13.839,37.52,34.718,72.32,65.679,109.52c37.598,44.961,82.879,80.4,134.559,105.362
					c19.68,9.359,46,20.32,75.281,22.238C328.668,385.76,330.508,385.842,332.266,385.842L332.266,385.842z M132.027,245.439
					c-29.441-35.44-49.281-68.479-62.32-103.84c-8.078-21.758-11.121-38.719-9.84-54.801c0.879-10.481,4.961-19.277,12.481-26.719
					l29.359-29.359c4.559-4.403,9.602-6.723,14.481-6.723c4.8,0,9.597,2.241,14.16,6.801c5.281,4.961,10.32,10.082,15.597,15.519
					c2.723,2.802,5.442,5.603,8.243,8.321l23.519,23.52c4.879,4.883,7.359,9.84,7.359,14.641s-2.48,9.762-7.359,14.641
					c-2.48,2.48-4.961,4.96-7.359,7.441c-7.282,7.437-14.243,14.397-21.762,21.199l-0.398,0.398c-6.559,6.563-5.602,12.882-4,17.68
					c0.078,0.241,0.16,0.402,0.238,0.641c6.082,14.641,14.562,28.562,27.679,45.121c23.762,29.199,48.641,51.922,76.161,69.358
					c3.441,2.16,6.961,4,10.48,5.681c3.121,1.602,6.082,3.039,8.723,4.723c0.316,0.16,0.559,0.316,0.879,0.478
					c2.642,1.28,5.121,1.922,7.68,1.922c6.398,0,10.48-4.082,11.841-5.441l29.521-29.52c4.559-4.56,9.52-6.961,14.319-6.961
					c6,0,10.801,3.684,13.922,6.961l47.599,47.602c9.44,9.438,9.358,19.597-0.238,29.597c-3.359,3.524-6.801,6.884-10.48,10.481
					c-5.52,5.358-11.281,10.883-16.48,17.121c-9.038,9.762-19.84,14.319-33.84,14.319c-1.358,0-2.801-0.082-4.16-0.16
					c-25.922-1.681-50-11.763-68-20.397C210.988,321.997,167.867,288.24,132.027,245.439L132.027,245.439z"/>
			</g>
		</g>
	</g>
</g>
<g id="Слой_8" display="none">
	<g display="inline">
		<g>
			<g>
				<defs>
					<rect id="SVGID_3_" x="40" y="-8" width="393.84" height="394.8"/>
				</defs>
				<clipPath id="SVGID_4_">
					<use xlink:href="#SVGID_3_"  overflow="visible"/>
				</clipPath>
				<path clip-path="url(#SVGID_4_)" fill="#E74B19" d="M332.266,385.842c19.68,0,35.521-6.801,48.402-20.801l0.32-0.32
					c4.559-5.521,9.758-10.48,15.199-15.762c3.68-3.599,7.52-7.277,11.121-11.039c16.879-17.604,16.797-39.922-0.16-56.961
					l-47.441-47.438c-8.078-8.401-17.762-12.883-27.922-12.883c-10.156,0-19.84,4.402-28.156,12.723L275.387,261.6
					c-2.559-1.52-5.199-2.801-7.758-4.078c-3.121-1.602-6.082-3.043-8.723-4.723c-25.758-16.32-49.121-37.68-71.438-65.117
					c-11.281-14.242-18.801-26.242-24.082-38.48c7.359-6.723,14.32-13.68,20.961-20.48c2.398-2.48,4.8-4.879,7.281-7.36
					c8.559-8.562,13.117-18.479,13.117-28.562c0-10.078-4.558-19.918-13.117-28.559l-23.524-23.52
					c-2.718-2.723-5.437-5.442-8.078-8.16c-5.199-5.359-10.64-10.879-16-15.84C135.945,8.639,126.348,4.4,116.266,4.4
					c-10.078,0-19.758,4.239-28.161,12.321L58.508,46.24c-10.723,10.72-16.801,23.841-18.16,38.962
					c-1.52,18.879,1.918,38.957,10.961,63.277c13.839,37.52,34.718,72.32,65.679,109.52c37.598,44.961,82.879,80.4,134.559,105.362
					c19.68,9.359,46,20.32,75.281,22.238C328.668,385.76,330.508,385.842,332.266,385.842L332.266,385.842z M132.027,245.439
					c-29.441-35.44-49.281-68.479-62.32-103.84c-8.078-21.758-11.121-38.719-9.84-54.801c0.879-10.481,4.961-19.277,12.481-26.719
					l29.359-29.359c4.559-4.403,9.602-6.723,14.481-6.723c4.8,0,9.597,2.241,14.16,6.801c5.281,4.961,10.32,10.082,15.597,15.519
					c2.723,2.802,5.442,5.603,8.243,8.321l23.519,23.52c4.879,4.883,7.359,9.84,7.359,14.641s-2.48,9.762-7.359,14.641
					c-2.48,2.48-4.961,4.96-7.359,7.441c-7.282,7.437-14.243,14.397-21.762,21.199l-0.398,0.398c-6.559,6.563-5.602,12.882-4,17.68
					c0.078,0.241,0.16,0.402,0.238,0.641c6.082,14.641,14.562,28.562,27.679,45.121c23.762,29.199,48.641,51.922,76.161,69.358
					c3.441,2.16,6.961,4,10.48,5.681c3.121,1.602,6.082,3.039,8.723,4.723c0.316,0.16,0.559,0.316,0.879,0.478
					c2.642,1.28,5.121,1.922,7.68,1.922c6.398,0,10.48-4.082,11.841-5.441l29.521-29.52c4.559-4.56,9.52-6.961,14.319-6.961
					c6,0,10.801,3.684,13.922,6.961l47.599,47.602c9.44,9.438,9.358,19.597-0.238,29.597c-3.359,3.524-6.801,6.884-10.48,10.481
					c-5.52,5.358-11.281,10.883-16.48,17.121c-9.038,9.762-19.84,14.319-33.84,14.319c-1.358,0-2.801-0.082-4.16-0.16
					c-25.922-1.681-50-11.763-68-20.397C210.988,321.997,167.867,288.24,132.027,245.439L132.027,245.439z"/>
			</g>
		</g>
	</g>
</g>
<g id="Слой_3">
	<polygon fill="#272727" points="248.732,200.52 229.563,200.52 225.422,184.92 219.5,184.92 219.5,183 226.898,183 231.04,198.6 
		248.732,198.6 	"/>
	<rect x="234.822" y="192.802" fill="#272727" width="16.498" height="1.919"/>
	<rect x="235.822" y="187.073" fill="#272727" width="18.154" height="1.92"/>
	<circle fill="#272727" cx="234.625" cy="204.616" r="2.384"/>
	<circle id="_x32_72727_2_" fill="#272727" cx="244.513" cy="204.616" r="2.384"/>
</g>
<g id="Слой_7" display="none">
	<polyline display="inline" fill="none" stroke="#E74B19" stroke-width="22" stroke-miterlimit="10" points="8,30 90,30 150,256 
		417,256 	"/>
	
		<line display="inline" fill="none" stroke="#E74B19" stroke-width="22" stroke-miterlimit="10" x1="201" y1="172" x2="440" y2="172"/>
	
		<line display="inline" fill="none" stroke="#E74B19" stroke-width="22" stroke-miterlimit="10" x1="201" y1="89" x2="464" y2="89"/>
	<circle display="inline" fill="#E74B19" cx="212.633" cy="329.25" r="34.526"/>
	<circle display="inline" fill="#E74B19" cx="355.867" cy="329.25" r="34.526"/>
</g>
<g id="Слой_5" display="none">
	
		<line display="inline" fill="none" stroke="#272727" stroke-width="22" stroke-miterlimit="10" x1="62" y1="169" x2="354" y2="169"/>
	<line display="inline" fill="none" stroke="#272727" stroke-width="22" stroke-miterlimit="10" x1="62" y1="86" x2="429" y2="86"/>
	
		<line display="inline" fill="none" stroke="#272727" stroke-width="22" stroke-miterlimit="10" x1="63" y1="254" x2="279" y2="254"/>
</g>
<g id="Слой_6" display="none">
	
		<line display="inline" fill="none" stroke="#E74B19" stroke-width="22" stroke-miterlimit="10" x1="62" y1="169" x2="354" y2="169"/>
	<line display="inline" fill="none" stroke="#E74B19" stroke-width="22" stroke-miterlimit="10" x1="62" y1="86" x2="429" y2="86"/>
	
		<line display="inline" fill="none" stroke="#E74B19" stroke-width="22" stroke-miterlimit="10" x1="63" y1="254" x2="279" y2="254"/>
</g>
</svg>
