<?xml version="1.0" encoding="utf-8"?>
<!-- Generator: Adobe Illustrator 16.2.0, SVG Export Plug-In . SVG Version: 6.00 Build 0)  -->
<!DOCTYPE svg PUBLIC "-//W3C//DTD SVG 1.1//EN" "http://www.w3.org/Graphics/SVG/1.1/DTD/svg11.dtd">
<svg version="1.1" id="Слой_1" xmlns:sketch="http://www.bohemiancoding.com/sketch/ns"
	 xmlns="http://www.w3.org/2000/svg" xmlns:xlink="http://www.w3.org/1999/xlink" x="0px" y="0px" width="25.602px" height="16px"
	 viewBox="1 1 25.602 16" enable-background="new 1 1 25.602 16" xml:space="preserve">
<path fill="#505050" d="M23.07,7.57c-0.742-1.968-2.645-3.371-4.871-3.371c-0.512,0-1.008,0.074-1.477,0.215
	C15.453,2.363,13.188,1,10.602,1c-3.926,0-7.118,3.141-7.2,7.043C1.965,8.875,1,10.426,1,12.199C1,14.848,3.152,17,5.801,17h4.801
	H17h4.801c2.648,0,4.801-2.156,4.801-4.801C26.602,9.988,25.105,8.125,23.07,7.57z M21.801,15.398H5.797
	c-1.762,0-3.195-1.43-3.195-3.199c0-1.512,1.05-2.785,2.468-3.117C5.023,8.797,5,8.5,5,8.199c0-3.094,2.508-5.597,5.602-5.597
	c2.527,0,4.664,1.675,5.359,3.976c0.617-0.488,1.391-0.777,2.238-0.777c1.855,0,3.379,1.398,3.578,3.199h0.023
	C23.566,9,25,10.434,25,12.199S23.57,15.398,21.801,15.398z"/>
</svg>
