<?xml version="1.0" encoding="utf-8"?>
<!-- Generator: Adobe Illustrator 16.2.0, SVG Export Plug-In . SVG Version: 6.00 Build 0)  -->
<!DOCTYPE svg PUBLIC "-//W3C//DTD SVG 1.1//EN" "http://www.w3.org/Graphics/SVG/1.1/DTD/svg11.dtd">
<svg version="1.1" id="Capa_1" xmlns="http://www.w3.org/2000/svg" xmlns:xlink="http://www.w3.org/1999/xlink" x="0px" y="0px"
	 width="512px" height="512px" viewBox="0 0 512 512" enable-background="new 0 0 512 512" xml:space="preserve">
<g>
	<g>
		<path fill="#EB490F" d="M249.876,363.177c-10.105,0-18.374,8.268-18.374,18.373v12.248c0,10.105,8.268,18.373,18.374,18.373
			c10.104,0,18.373-8.268,18.373-18.373V381.55C268.249,371.445,259.98,363.177,249.876,363.177z"/>
		<path fill="#EB490F" d="M256,511.999c141.167,0,256-114.832,256-256S397.168,0,256,0C114.833,0,0,114.832,0,256
			S114.833,511.999,256,511.999z M256,36.746c120.958,0,219.254,98.297,219.254,219.254S376.958,475.254,256,475.254
			S36.747,376.956,36.747,256S135.043,36.746,256,36.746z"/>
		<path fill="#EB490F" d="M176.383,210.068C176.689,210.068,176.689,210.068,176.383,210.068c10.105,0,18.373-7.655,18.373-17.761
			c0,0,0.306-14.698,7.655-29.091c9.187-18.373,25.417-27.561,49.302-27.561c22.354,0,38.89,6.125,48.076,18.067
			c7.655,9.8,9.8,23.272,6.125,37.972c-4.594,18.067-20.211,33.685-35.215,48.994c-18.374,18.986-37.665,38.278-37.665,64.307
			c0,10.105,8.268,18.373,18.373,18.373s18.373-8.268,18.373-18.373c0-11.023,13.167-24.498,27.254-38.584
			c17.454-17.76,37.359-37.971,44.401-65.53c6.736-25.417,2.144-50.832-12.555-69.513c-11.33-14.698-33.99-32.459-76.862-32.459
			c-48.076,0-71.043,25.723-82.067,47.771s-11.637,43.177-11.637,45.627C158.315,202.106,166.278,210.068,176.383,210.068z"/>
	</g>
</g>
</svg>
