<?xml version="1.0" encoding="utf-8"?>
<!-- Generator: Adobe Illustrator 16.2.0, SVG Export Plug-In . SVG Version: 6.00 Build 0)  -->
<!DOCTYPE svg PUBLIC "-//W3C//DTD SVG 1.1//EN" "http://www.w3.org/Graphics/SVG/1.1/DTD/svg11.dtd">
<svg version="1.1" id="Слой_1" xmlns="http://www.w3.org/2000/svg" xmlns:xlink="http://www.w3.org/1999/xlink" x="0px" y="0px"
	 width="30px" height="30px" viewBox="222 180 30 30" enable-background="new 222 180 30 30" xml:space="preserve">
<g id="Слой_1_1_" display="none">
	<g display="inline">
		<path fill="#272727" d="M332.266,385.842c19.68,0,35.521-6.801,48.402-20.801l0.32-0.32c4.559-5.521,9.758-10.48,15.199-15.762
			c3.68-3.599,7.52-7.277,11.121-11.039c16.879-17.604,16.797-39.922-0.16-56.961l-47.441-47.438
			c-8.078-8.401-17.762-12.883-27.922-12.883c-10.156,0-19.84,4.402-28.156,12.723L275.387,261.6
			c-2.559-1.52-5.199-2.801-7.758-4.078c-3.121-1.602-6.082-3.043-8.723-4.723c-25.758-16.32-49.121-37.68-71.438-65.117
			c-11.281-14.242-18.801-26.242-24.082-38.48c7.359-6.723,14.32-13.68,20.961-20.48c2.398-2.48,4.8-4.879,7.281-7.36
			c8.559-8.562,13.117-18.479,13.117-28.562c0-10.078-4.558-19.918-13.117-28.559l-23.524-23.52
			c-2.718-2.723-5.437-5.442-8.078-8.16c-5.199-5.359-10.64-10.879-16-15.84C135.945,8.639,126.348,4.4,116.266,4.4
			c-10.078,0-19.758,4.239-28.161,12.321L58.508,46.24c-10.723,10.72-16.801,23.841-18.16,38.962
			c-1.52,18.879,1.918,38.957,10.961,63.277c13.839,37.52,34.718,72.32,65.679,109.52c37.598,44.961,82.879,80.4,134.559,105.362
			c19.68,9.359,46,20.32,75.281,22.238C328.668,385.76,330.508,385.842,332.266,385.842L332.266,385.842z M132.027,245.439
			c-29.441-35.44-49.281-68.479-62.32-103.84c-8.078-21.758-11.121-38.719-9.84-54.801c0.879-10.481,4.961-19.277,12.481-26.719
			l29.359-29.359c4.559-4.403,9.602-6.723,14.481-6.723c4.8,0,9.597,2.241,14.16,6.801c5.281,4.961,10.32,10.082,15.597,15.519
			c2.723,2.802,5.442,5.603,8.243,8.321l23.519,23.52c4.879,4.883,7.359,9.84,7.359,14.641s-2.48,9.762-7.359,14.641
			c-2.48,2.48-4.961,4.96-7.359,7.441c-7.282,7.437-14.243,14.397-21.762,21.199l-0.398,0.398c-6.559,6.563-5.602,12.882-4,17.68
			c0.078,0.241,0.16,0.402,0.238,0.641c6.082,14.641,14.562,28.562,27.679,45.121c23.762,29.199,48.641,51.922,76.161,69.358
			c3.441,2.16,6.961,4,10.48,5.681c3.121,1.602,6.082,3.039,8.723,4.723c0.316,0.16,0.559,0.316,0.879,0.478
			c2.642,1.28,5.121,1.922,7.68,1.922c6.398,0,10.48-4.082,11.841-5.441l29.521-29.52c4.559-4.56,9.52-6.961,14.319-6.961
			c6,0,10.801,3.684,13.922,6.961l47.599,47.602c9.44,9.438,9.358,19.597-0.238,29.597c-3.359,3.524-6.801,6.884-10.48,10.481
			c-5.52,5.358-11.281,10.883-16.48,17.121c-9.038,9.762-19.84,14.319-33.84,14.319c-1.358,0-2.801-0.082-4.16-0.16
			c-25.922-1.681-50-11.763-68-20.397C210.988,321.997,167.867,288.24,132.027,245.439L132.027,245.439z"/>
	</g>
</g>
<g id="Слой_8">
	<g>
		<path fill="#E74B19" d="M244.854,209.644c1.511,0,2.728-0.522,3.717-1.599l0.023-0.024c0.352-0.423,0.75-0.805,1.168-1.21
			c0.282-0.276,0.577-0.559,0.854-0.848c1.296-1.352,1.29-3.064-0.013-4.372l-3.642-3.643c-0.62-0.646-1.364-0.989-2.144-0.989
			c-0.78,0-1.523,0.338-2.162,0.977l-2.169,2.168c-0.196-0.116-0.398-0.215-0.595-0.313c-0.24-0.123-0.468-0.234-0.671-0.362
			c-1.977-1.254-3.771-2.894-5.484-5c-0.867-1.093-1.443-2.015-1.85-2.954c0.565-0.517,1.1-1.051,1.609-1.573
			c0.185-0.19,0.369-0.375,0.56-0.565c0.657-0.657,1.006-1.418,1.006-2.192s-0.35-1.529-1.006-2.193l-1.807-1.805
			c-0.209-0.209-0.417-0.418-0.62-0.626c-0.399-0.412-0.817-0.835-1.229-1.216c-0.621-0.621-1.357-0.946-2.131-0.946
			c-0.773,0-1.517,0.325-2.162,0.946l-2.272,2.266c-0.824,0.824-1.29,1.831-1.395,2.992c-0.116,1.45,0.148,2.992,0.842,4.858
			c1.063,2.881,2.666,5.553,5.043,8.409c2.887,3.451,6.362,6.174,10.331,8.09c1.511,0.719,3.531,1.56,5.78,1.707
			C244.579,209.637,244.72,209.644,244.854,209.644L244.854,209.644z M229.481,198.864c-2.26-2.721-3.784-5.258-4.785-7.973
			c-0.621-1.67-0.854-2.973-0.756-4.207c0.068-0.805,0.381-1.48,0.958-2.052l2.255-2.254c0.35-0.337,0.737-0.516,1.111-0.516
			c0.369,0,0.737,0.172,1.088,0.522c0.405,0.38,0.792,0.774,1.197,1.191c0.209,0.214,0.417,0.43,0.632,0.639l1.807,1.806
			c0.375,0.375,0.564,0.755,0.564,1.124c0,0.369-0.19,0.749-0.564,1.124c-0.19,0.19-0.381,0.381-0.565,0.571
			c-0.56,0.571-1.093,1.106-1.671,1.628l-0.031,0.03c-0.503,0.503-0.43,0.989-0.307,1.358c0.005,0.018,0.012,0.03,0.018,0.048
			c0.467,1.124,1.118,2.194,2.125,3.464c1.825,2.242,3.735,3.986,5.848,5.325c0.264,0.166,0.534,0.307,0.805,0.436
			c0.24,0.123,0.467,0.233,0.67,0.363c0.023,0.013,0.043,0.023,0.067,0.036c0.202,0.099,0.393,0.147,0.59,0.147
			c0.49,0,0.804-0.313,0.909-0.417l2.266-2.267c0.351-0.351,0.731-0.534,1.101-0.534c0.46,0,0.828,0.282,1.068,0.534l3.654,3.654
			c0.726,0.725,0.719,1.505-0.019,2.273c-0.258,0.27-0.522,0.527-0.805,0.804c-0.424,0.411-0.866,0.836-1.265,1.315
			c-0.694,0.749-1.523,1.099-2.599,1.099c-0.104,0-0.215-0.007-0.319-0.013c-1.99-0.128-3.839-0.902-5.221-1.565
			C235.543,204.741,232.232,202.15,229.481,198.864L229.481,198.864z"/>
		<path fill="#E74B19" d="M244.854,210.009c-0.146,0-0.297-0.006-0.449-0.02c-2.308-0.151-4.369-1.011-5.906-1.742
			c-4.017-1.939-7.533-4.693-10.453-8.186c-2.406-2.889-4.028-5.594-5.106-8.516c-0.71-1.91-0.984-3.503-0.863-5.014
			c0.113-1.256,0.619-2.339,1.501-3.221l2.272-2.266c1.44-1.387,3.439-1.373,4.811,0c0.407,0.376,0.829,0.803,1.233,1.22
			c0.201,0.208,0.408,0.415,0.616,0.622l1.807,1.806c0.729,0.736,1.114,1.584,1.114,2.452c0,0.875-0.385,1.723-1.114,2.451
			c-0.189,0.189-0.372,0.373-0.556,0.562c-0.383,0.394-0.881,0.897-1.43,1.409c0.388,0.832,0.918,1.656,1.694,2.636
			c1.692,2.08,3.458,3.69,5.394,4.917c0.161,0.103,0.34,0.193,0.528,0.288l0.112,0.058c0.138,0.068,0.256,0.128,0.364,0.185
			l1.975-1.974c1.424-1.423,3.448-1.417,4.829,0.019l3.637,3.638c1.433,1.438,1.439,3.401,0.017,4.885
			c-0.221,0.231-0.454,0.46-0.685,0.684l-0.176,0.172c-0.453,0.438-0.822,0.795-1.143,1.182
			C247.778,209.448,246.474,210.009,244.854,210.009z M228.271,180.724c-0.675,0-1.335,0.292-1.909,0.843l-2.267,2.261
			c-0.757,0.758-1.191,1.688-1.288,2.765c-0.112,1.397,0.148,2.891,0.82,4.698c1.048,2.842,2.631,5.479,4.981,8.302
			c2.852,3.41,6.287,6.101,10.208,7.994c1.476,0.702,3.453,1.528,5.646,1.672c0.138,0.012,0.269,0.019,0.393,0.019
			c1.403,0,2.531-0.484,3.447-1.479c0.358-0.43,0.741-0.799,1.146-1.192l0.235-0.229c0.225-0.218,0.452-0.44,0.668-0.666
			c1.161-1.211,1.159-2.69-0.007-3.861l-3.642-3.643c-1.11-1.153-2.649-1.151-3.788-0.012l-2.37,2.368l-0.245-0.145
			c-0.164-0.098-0.334-0.182-0.5-0.264l-0.185-0.094c-0.21-0.106-0.408-0.209-0.59-0.323c-2.003-1.27-3.826-2.932-5.572-5.077
			c-0.894-1.128-1.479-2.064-1.901-3.04l-0.104-0.24l0.192-0.176c0.613-0.56,1.174-1.127,1.594-1.558
			c0.186-0.192,0.371-0.376,0.563-0.569c0.588-0.588,0.899-1.257,0.899-1.934c0-0.671-0.312-1.34-0.901-1.936l-1.805-1.804
			c-0.21-0.21-0.42-0.42-0.624-0.631c-0.395-0.407-0.808-0.826-1.214-1.202C229.595,181.013,228.947,180.724,228.271,180.724z
			 M244.849,208.504c-0.102,0-0.208-0.006-0.311-0.012c-2.103-0.135-3.981-0.928-5.388-1.604c-3.817-1.843-7.165-4.463-9.95-7.79
			c-2.292-2.759-3.832-5.327-4.848-8.082c-0.64-1.724-0.88-3.069-0.777-4.363c0.076-0.902,0.425-1.647,1.066-2.283l2.253-2.253
			c0.849-0.818,1.88-0.828,2.716,0.006c0.401,0.376,0.792,0.774,1.202,1.196c0.236,0.243,0.428,0.44,0.625,0.631l1.81,1.809
			c0.446,0.446,0.672,0.911,0.672,1.383c0,0.472-0.226,0.937-0.672,1.383c-0.189,0.189-0.378,0.378-0.562,0.567
			c-0.61,0.623-1.13,1.141-1.688,1.645c-0.357,0.357-0.351,0.657-0.236,1c0.468,1.129,1.108,2.171,2.083,3.401
			c1.803,2.216,3.688,3.933,5.757,5.244c0.25,0.157,0.508,0.291,0.766,0.413l0.117,0.061c0.212,0.107,0.411,0.21,0.593,0.325
			c0.644,0.316,0.988-0.064,1.109-0.184l2.267-2.267c0.837-0.837,1.884-0.843,2.692,0.006l3.648,3.649
			c0.863,0.86,0.858,1.876-0.013,2.784c-0.256,0.268-0.517,0.522-0.795,0.795v0.001l-0.072,0.069
			c-0.401,0.389-0.815,0.79-1.186,1.234C246.957,208.107,246.021,208.504,244.849,208.504z M228.265,182.228
			c-0.281,0-0.577,0.143-0.857,0.414l-2.25,2.25c-0.513,0.508-0.792,1.104-0.852,1.823c-0.094,1.18,0.132,2.43,0.734,4.049
			c0.986,2.675,2.487,5.174,4.723,7.867c2.718,3.246,5.983,5.803,9.705,7.6c1.347,0.646,3.141,1.405,5.085,1.531
			c0.114,0.005,0.208,0.011,0.296,0.011c0.97,0,1.709-0.312,2.33-0.981c0.382-0.461,0.811-0.876,1.227-1.278l0.325,0.195
			l-0.257-0.263c0.273-0.267,0.528-0.517,0.779-0.778c0.596-0.622,0.604-1.182,0.023-1.76l-3.654-3.656
			c-0.549-0.575-1.099-0.552-1.65,0.001l-2.267,2.266c-0.133,0.133-0.529,0.525-1.168,0.525c-0.249,0-0.494-0.06-0.75-0.185
			l-0.104-0.057c-0.162-0.104-0.342-0.194-0.53-0.289l-0.109-0.057c-0.272-0.131-0.556-0.278-0.832-0.452
			c-2.139-1.354-4.081-3.122-5.938-5.404c-1.021-1.289-1.693-2.384-2.179-3.554c-0.11-0.321-0.362-1.076,0.368-1.806
			c0.588-0.535,1.099-1.044,1.699-1.656c0.184-0.189,0.376-0.381,0.568-0.573c0.303-0.303,0.457-0.595,0.457-0.865
			c0-0.271-0.154-0.562-0.457-0.865l-1.807-1.806c-0.198-0.192-0.395-0.395-0.59-0.596c-0.447-0.459-0.83-0.85-1.231-1.226
			C228.817,182.367,228.538,182.228,228.265,182.228z"/>
	</g>
</g>
<g id="Слой_3" display="none">
	<polyline display="inline" fill="none" stroke="#272727" stroke-width="22" stroke-miterlimit="10" points="8,30 90,30 150,256 
		417,256 	"/>
	
		<line display="inline" fill="none" stroke="#272727" stroke-width="22" stroke-miterlimit="10" x1="201" y1="172" x2="440" y2="172"/>
	
		<line display="inline" fill="none" stroke="#272727" stroke-width="22" stroke-miterlimit="10" x1="201" y1="89" x2="464" y2="89"/>
	<circle display="inline" fill="#272727" cx="212.633" cy="329.25" r="34.526"/>
	<circle id="_x32_72727_2_" display="inline" fill="#272727" cx="355.867" cy="329.25" r="34.526"/>
</g>
<g id="Слой_7" display="none">
	<polyline display="inline" fill="none" stroke="#E74B19" stroke-width="22" stroke-miterlimit="10" points="8,30 90,30 150,256 
		417,256 	"/>
	
		<line display="inline" fill="none" stroke="#E74B19" stroke-width="22" stroke-miterlimit="10" x1="201" y1="172" x2="440" y2="172"/>
	
		<line display="inline" fill="none" stroke="#E74B19" stroke-width="22" stroke-miterlimit="10" x1="201" y1="89" x2="464" y2="89"/>
	<circle display="inline" fill="#E74B19" cx="212.633" cy="329.25" r="34.526"/>
	<circle display="inline" fill="#E74B19" cx="355.867" cy="329.25" r="34.526"/>
</g>
<g id="Слой_5" display="none">
	
		<line display="inline" fill="none" stroke="#272727" stroke-width="22" stroke-miterlimit="10" x1="52" y1="122" x2="344" y2="122"/>
	<line display="inline" fill="none" stroke="#272727" stroke-width="22" stroke-miterlimit="10" x1="52" y1="39" x2="419" y2="39"/>
	
		<line display="inline" fill="none" stroke="#272727" stroke-width="22" stroke-miterlimit="10" x1="53" y1="207" x2="269" y2="207"/>
</g>
<g id="Слой_6" display="none">
	
		<line display="inline" fill="none" stroke="#E74B19" stroke-width="22" stroke-miterlimit="10" x1="52" y1="122" x2="344" y2="122"/>
	<line display="inline" fill="none" stroke="#E74B19" stroke-width="22" stroke-miterlimit="10" x1="52" y1="39" x2="419" y2="39"/>
	
		<line display="inline" fill="none" stroke="#E74B19" stroke-width="22" stroke-miterlimit="10" x1="53" y1="207" x2="269" y2="207"/>
</g>
<g id="Слой_9" display="none">
	<g display="inline">
		<g>
			<g>
				<defs>
					<rect id="SVGID_1_" x="56.52" y="17.08" width="360.96" height="361.92"/>
				</defs>
				<clipPath id="SVGID_2_">
					<use xlink:href="#SVGID_1_"  overflow="visible"/>
				</clipPath>
				<path clip-path="url(#SVGID_2_)" fill="#272727" d="M414.121,359.638l-87.68-87.679c23.52-27.039,37.758-62.321,37.758-100.879
					c0-84.879-69.039-153.841-153.84-153.841c-84.879,0-153.84,69.039-153.84,153.841c0,84.801,69.039,153.84,153.84,153.84
					c38.559,0,73.84-14.239,100.879-37.758l87.68,87.68c2.082,2.078,4.883,3.198,7.602,3.198s5.521-1.038,7.603-3.198
					C418.281,370.681,418.281,363.799,414.121,359.638L414.121,359.638z M78.04,171.08c0-72.961,59.359-132.238,132.242-132.238
					c72.957,0,132.237,59.359,132.237,132.238S283.238,303.4,210.281,303.4C137.398,303.4,78.04,244.041,78.04,171.08L78.04,171.08z
					"/>
			</g>
		</g>
	</g>
</g>
<g id="Слой_10" display="none">
	<path display="inline" fill="#E74B19" d="M414.121,359.638l-87.68-87.679c23.52-27.039,37.758-62.321,37.758-100.879
		c0-84.879-69.039-153.841-153.84-153.841c-84.879,0-153.84,69.039-153.84,153.841c0,84.801,69.039,153.84,153.84,153.84
		c38.559,0,73.84-14.239,100.879-37.758l87.68,87.68c2.082,2.078,4.883,3.198,7.602,3.198s5.521-1.038,7.603-3.198
		C418.281,370.681,418.281,363.799,414.121,359.638L414.121,359.638z M78.04,171.08c0-72.961,59.359-132.238,132.242-132.238
		c72.957,0,132.237,59.359,132.237,132.238S283.238,303.4,210.281,303.4C137.398,303.4,78.04,244.041,78.04,171.08L78.04,171.08z"/>
</g>
</svg>
