<?xml version="1.0" encoding="utf-8"?>
<!-- Generator: Adobe Illustrator 16.2.0, SVG Export Plug-In . SVG Version: 6.00 Build 0)  -->
<!DOCTYPE svg PUBLIC "-//W3C//DTD SVG 1.1//EN" "http://www.w3.org/Graphics/SVG/1.1/DTD/svg11.dtd">
<svg version="1.1" id="Слой_1" xmlns="http://www.w3.org/2000/svg" xmlns:xlink="http://www.w3.org/1999/xlink" x="0px" y="0px"
	 width="24px" height="24px" viewBox="168.48 168.96 24 24" enable-background="new 168.48 168.96 24 24" xml:space="preserve">
<g id="Слой_1_1_" display="none">
	<g display="inline">
		<g>
			<g>
				<g>
					<defs>
						<rect id="SVGID_1_" x="40" y="-8" width="393.84" height="394.8"/>
					</defs>
					<clipPath id="SVGID_2_">
						<use xlink:href="#SVGID_1_"  overflow="visible"/>
					</clipPath>
					<path clip-path="url(#SVGID_2_)" fill="#272727" d="M332.266,385.842c19.68,0,35.521-6.801,48.402-20.801l0.32-0.32
						c4.559-5.521,9.758-10.48,15.199-15.762c3.68-3.6,7.52-7.277,11.121-11.039c16.879-17.604,16.797-39.923-0.16-56.961
						l-47.441-47.438c-8.078-8.4-17.762-12.883-27.922-12.883c-10.156,0-19.84,4.402-28.156,12.723L275.387,261.6
						c-2.559-1.52-5.199-2.801-7.758-4.078c-3.121-1.602-6.082-3.043-8.723-4.723c-25.758-16.32-49.121-37.68-71.438-65.117
						c-11.281-14.242-18.801-26.242-24.082-38.479c7.359-6.724,14.32-13.681,20.961-20.48c2.397-2.48,4.799-4.879,7.28-7.36
						c8.56-8.562,13.117-18.479,13.117-28.562c0-10.078-4.558-19.918-13.117-28.56l-23.524-23.52
						c-2.718-2.723-5.437-5.442-8.078-8.16c-5.199-5.358-10.64-10.879-16-15.84C135.945,8.639,126.348,4.4,116.266,4.4
						c-10.078,0-19.758,4.239-28.161,12.321L58.508,46.24C47.785,56.96,41.707,70.081,40.348,85.202
						c-1.52,18.879,1.918,38.957,10.961,63.276c13.839,37.521,34.718,72.32,65.679,109.521
						c37.598,44.961,82.879,80.399,134.559,105.361c19.68,9.359,46,20.32,75.281,22.238
						C328.668,385.76,330.508,385.842,332.266,385.842L332.266,385.842z M132.027,245.439
						c-29.441-35.439-49.281-68.479-62.32-103.84c-8.078-21.758-11.121-38.719-9.84-54.801c0.879-10.481,4.961-19.277,12.481-26.719
						l29.359-29.359c4.559-4.403,9.602-6.723,14.481-6.723c4.8,0,9.597,2.24,14.16,6.801c5.281,4.961,10.32,10.082,15.597,15.519
						c2.723,2.803,5.442,5.604,8.243,8.321l23.519,23.521c4.879,4.883,7.359,9.84,7.359,14.641s-2.48,9.762-7.359,14.641
						c-2.48,2.48-4.961,4.96-7.359,7.441c-7.282,7.437-14.243,14.396-21.762,21.199l-0.398,0.397
						c-6.559,6.563-5.602,12.882-4,17.681c0.078,0.24,0.16,0.401,0.238,0.641c6.082,14.641,14.562,28.562,27.679,45.121
						c23.762,29.199,48.641,51.922,76.161,69.357c3.441,2.16,6.961,4,10.48,5.682c3.121,1.602,6.082,3.039,8.723,4.723
						c0.316,0.16,0.559,0.316,0.879,0.479c2.643,1.279,5.121,1.922,7.68,1.922c6.398,0,10.48-4.082,11.842-5.441l29.521-29.52
						c4.559-4.561,9.52-6.962,14.318-6.962c6,0,10.801,3.685,13.922,6.962l47.6,47.602c9.439,9.438,9.357,19.597-0.238,29.597
						c-3.359,3.524-6.801,6.884-10.48,10.481c-5.52,5.357-11.281,10.883-16.479,17.121c-9.038,9.762-19.841,14.318-33.841,14.318
						c-1.357,0-2.801-0.082-4.159-0.16c-25.923-1.681-50-11.763-68-20.396C210.988,321.996,167.867,288.24,132.027,245.439
						L132.027,245.439z"/>
				</g>
			</g>
		</g>
	</g>
</g>
<g id="Слой_8" display="none">
	<g display="inline">
		<g>
			<g>
				<g>
					<defs>
						<rect id="SVGID_3_" x="40" y="-8" width="393.84" height="394.8"/>
					</defs>
					<clipPath id="SVGID_4_">
						<use xlink:href="#SVGID_3_"  overflow="visible"/>
					</clipPath>
					<path clip-path="url(#SVGID_4_)" fill="#E74B19" d="M332.266,385.842c19.68,0,35.521-6.801,48.402-20.801l0.32-0.32
						c4.559-5.521,9.758-10.48,15.199-15.762c3.68-3.6,7.52-7.277,11.121-11.039c16.879-17.604,16.797-39.923-0.16-56.961
						l-47.441-47.438c-8.078-8.4-17.762-12.883-27.922-12.883c-10.156,0-19.84,4.402-28.156,12.723L275.387,261.6
						c-2.559-1.52-5.199-2.801-7.758-4.078c-3.121-1.602-6.082-3.043-8.723-4.723c-25.758-16.32-49.121-37.68-71.438-65.117
						c-11.281-14.242-18.801-26.242-24.082-38.479c7.359-6.724,14.32-13.681,20.961-20.48c2.397-2.48,4.799-4.879,7.28-7.36
						c8.56-8.562,13.117-18.479,13.117-28.562c0-10.078-4.558-19.918-13.117-28.56l-23.524-23.52
						c-2.718-2.723-5.437-5.442-8.078-8.16c-5.199-5.358-10.64-10.879-16-15.84C135.945,8.639,126.348,4.4,116.266,4.4
						c-10.078,0-19.758,4.239-28.161,12.321L58.508,46.24C47.785,56.96,41.707,70.081,40.348,85.202
						c-1.52,18.879,1.918,38.957,10.961,63.276c13.839,37.521,34.718,72.32,65.679,109.521
						c37.598,44.961,82.879,80.399,134.559,105.361c19.68,9.359,46,20.32,75.281,22.238
						C328.668,385.76,330.508,385.842,332.266,385.842L332.266,385.842z M132.027,245.439
						c-29.441-35.439-49.281-68.479-62.32-103.84c-8.078-21.758-11.121-38.719-9.84-54.801c0.879-10.481,4.961-19.277,12.481-26.719
						l29.359-29.359c4.559-4.403,9.602-6.723,14.481-6.723c4.8,0,9.597,2.24,14.16,6.801c5.281,4.961,10.32,10.082,15.597,15.519
						c2.723,2.803,5.442,5.604,8.243,8.321l23.519,23.521c4.879,4.883,7.359,9.84,7.359,14.641s-2.48,9.762-7.359,14.641
						c-2.48,2.48-4.961,4.96-7.359,7.441c-7.282,7.437-14.243,14.396-21.762,21.199l-0.398,0.397
						c-6.559,6.563-5.602,12.882-4,17.681c0.078,0.24,0.16,0.401,0.238,0.641c6.082,14.641,14.562,28.562,27.679,45.121
						c23.762,29.199,48.641,51.922,76.161,69.357c3.441,2.16,6.961,4,10.48,5.682c3.121,1.602,6.082,3.039,8.723,4.723
						c0.316,0.16,0.559,0.316,0.879,0.479c2.643,1.279,5.121,1.922,7.68,1.922c6.398,0,10.48-4.082,11.842-5.441l29.521-29.52
						c4.559-4.561,9.52-6.962,14.318-6.962c6,0,10.801,3.685,13.922,6.962l47.6,47.602c9.439,9.438,9.357,19.597-0.238,29.597
						c-3.359,3.524-6.801,6.884-10.48,10.481c-5.52,5.357-11.281,10.883-16.479,17.121c-9.038,9.762-19.841,14.318-33.841,14.318
						c-1.357,0-2.801-0.082-4.159-0.16c-25.923-1.681-50-11.763-68-20.396C210.988,321.996,167.867,288.24,132.027,245.439
						L132.027,245.439z"/>
				</g>
			</g>
		</g>
	</g>
</g>
<g id="Слой_3" display="none">
	<polyline display="inline" fill="none" stroke="#272727" stroke-width="22" stroke-miterlimit="10" points="8,30 90,30 150,256 
		417,256 	"/>
	
		<line display="inline" fill="none" stroke="#272727" stroke-width="22" stroke-miterlimit="10" x1="201" y1="172" x2="440" y2="172"/>
	
		<line display="inline" fill="none" stroke="#272727" stroke-width="22" stroke-miterlimit="10" x1="201" y1="89" x2="464" y2="89"/>
	<circle display="inline" fill="#272727" cx="212.633" cy="329.25" r="34.526"/>
	<circle id="_x32_72727_2_" display="inline" fill="#272727" cx="355.867" cy="329.25" r="34.526"/>
</g>
<g id="Слой_7" display="none">
	<polyline display="inline" fill="none" stroke="#E74B19" stroke-width="22" stroke-miterlimit="10" points="8,30 90,30 150,256 
		417,256 	"/>
	
		<line display="inline" fill="none" stroke="#E74B19" stroke-width="22" stroke-miterlimit="10" x1="201" y1="172" x2="440" y2="172"/>
	
		<line display="inline" fill="none" stroke="#E74B19" stroke-width="22" stroke-miterlimit="10" x1="201" y1="89" x2="464" y2="89"/>
	<circle display="inline" fill="#E74B19" cx="212.633" cy="329.25" r="34.526"/>
	<circle display="inline" fill="#E74B19" cx="355.867" cy="329.25" r="34.526"/>
</g>
<g id="Слой_5" display="none">
	
		<line display="inline" fill="none" stroke="#272727" stroke-width="22" stroke-miterlimit="10" x1="52" y1="122" x2="344" y2="122"/>
	<line display="inline" fill="none" stroke="#272727" stroke-width="22" stroke-miterlimit="10" x1="52" y1="39" x2="419" y2="39"/>
	
		<line display="inline" fill="none" stroke="#272727" stroke-width="22" stroke-miterlimit="10" x1="53" y1="207" x2="269" y2="207"/>
</g>
<g id="Слой_6" display="none">
	
		<line display="inline" fill="none" stroke="#E74B19" stroke-width="22" stroke-miterlimit="10" x1="52" y1="122" x2="344" y2="122"/>
	<line display="inline" fill="none" stroke="#E74B19" stroke-width="22" stroke-miterlimit="10" x1="52" y1="39" x2="419" y2="39"/>
	
		<line display="inline" fill="none" stroke="#E74B19" stroke-width="22" stroke-miterlimit="10" x1="53" y1="207" x2="269" y2="207"/>
</g>
<g id="Слой_10" display="none">
	<path display="inline" fill="#E74B19" d="M414.121,359.638l-87.68-87.679c23.52-27.039,37.758-62.321,37.758-100.879
		c0-84.879-69.039-153.842-153.84-153.842c-84.879,0-153.84,69.039-153.84,153.842c0,84.801,69.039,153.84,153.84,153.84
		c38.559,0,73.84-14.239,100.879-37.758l87.68,87.68c2.082,2.078,4.883,3.197,7.602,3.197s5.521-1.037,7.604-3.197
		C418.281,370.681,418.281,363.799,414.121,359.638L414.121,359.638z M78.04,171.08c0-72.961,59.359-132.238,132.242-132.238
		c72.957,0,132.237,59.359,132.237,132.238S283.238,303.4,210.281,303.4C137.398,303.4,78.04,244.041,78.04,171.08L78.04,171.08z"/>
</g>
<image overflow="visible" width="24" height="24" xlink:href="741E7A38.jpg"  transform="matrix(0.9999 0 0 0.9999 492 125.0002)">
</image>
<g>
	<path fill="#272727" d="M191.913,191.412l-5.655-5.655c1.517-1.745,2.435-4.021,2.435-6.507c0-5.475-4.452-9.923-9.922-9.923
		c-5.475,0-9.923,4.453-9.923,9.923c0,5.469,4.453,9.922,9.923,9.922c2.487,0,4.762-0.918,6.506-2.435l5.655,5.655
		c0.135,0.133,0.314,0.207,0.491,0.207c0.175,0,0.355-0.068,0.49-0.207C192.181,192.124,192.181,191.679,191.913,191.412
		L191.913,191.412z M170.235,179.25c0-4.707,3.829-8.53,8.53-8.53c4.706,0,8.529,3.829,8.529,8.53c0,4.7-3.823,8.535-8.529,8.535
		C174.064,187.784,170.235,183.955,170.235,179.25L170.235,179.25z"/>
	<path fill="#272727" d="M191.423,192.963c-0.273,0-0.546-0.113-0.746-0.312l-5.421-5.422c-1.831,1.49-4.121,2.307-6.486,2.307
		c-5.672,0-10.287-4.615-10.287-10.287c0-5.672,4.615-10.287,10.287-10.287c5.671,0,10.287,4.615,10.287,10.287
		c0,2.365-0.816,4.655-2.307,6.486l5.421,5.419c0.197,0.197,0.307,0.463,0.307,0.747s-0.109,0.549-0.307,0.748
		C191.979,192.848,191.705,192.963,191.423,192.963z M185.294,186.24l5.896,5.895c0.128,0.128,0.346,0.124,0.463,0.004
		c0.064-0.064,0.098-0.147,0.098-0.237c0-0.089-0.033-0.172-0.094-0.232l-5.896-5.896l0.223-0.256
		c1.512-1.739,2.346-3.966,2.346-6.268c0-5.271-4.288-9.559-9.559-9.559c-5.271,0-9.56,4.288-9.56,9.559
		c0,5.271,4.288,9.559,9.56,9.559c2.302,0,4.529-0.833,6.268-2.346L185.294,186.24z M178.765,188.148
		c-4.904,0-8.894-3.991-8.894-8.898c0-4.904,3.99-8.894,8.894-8.894c4.903,0,8.892,3.99,8.892,8.894
		C187.657,184.156,183.668,188.148,178.765,188.148z M178.765,171.083c-4.503,0-8.166,3.664-8.166,8.167
		c0,4.505,3.663,8.17,8.166,8.17c4.502,0,8.166-3.665,8.166-8.17C186.931,174.747,183.268,171.083,178.765,171.083z"/>
</g>
</svg>
