<?xml version="1.0" encoding="utf-8"?>
<!-- Generator: Adobe Illustrator 16.2.0, SVG Export Plug-In . SVG Version: 6.00 Build 0)  -->
<!DOCTYPE svg PUBLIC "-//W3C//DTD SVG 1.1//EN" "http://www.w3.org/Graphics/SVG/1.1/DTD/svg11.dtd">
<svg version="1.1" id="Слой_1" xmlns="http://www.w3.org/2000/svg" xmlns:xlink="http://www.w3.org/1999/xlink" x="0px" y="0px"
	 width="24px" height="24px" viewBox="168.361 168.401 24 24" enable-background="new 168.361 168.401 24 24" xml:space="preserve">
<g id="Слой_1_1_" display="none">
	<g display="inline">
		<g>
			<g>
				<g>
					<defs>
						<rect id="SVGID_1_" x="40" y="-8" width="393.84" height="394.8"/>
					</defs>
					<clipPath id="SVGID_2_">
						<use xlink:href="#SVGID_1_"  overflow="visible"/>
					</clipPath>
					<path clip-path="url(#SVGID_2_)" fill="#272727" d="M332.266,385.842c19.68,0,35.521-6.801,48.401-20.801l0.32-0.32
						c4.559-5.521,9.758-10.48,15.199-15.762c3.68-3.6,7.52-7.277,11.121-11.039c16.879-17.604,16.797-39.923-0.16-56.961
						l-47.441-47.438c-8.078-8.4-17.762-12.883-27.922-12.883c-10.156,0-19.84,4.402-28.156,12.723L275.387,261.6
						c-2.56-1.52-5.199-2.801-7.759-4.078c-3.121-1.602-6.082-3.043-8.723-4.723c-25.758-16.32-49.121-37.68-71.438-65.117
						c-11.28-14.242-18.801-26.242-24.081-38.479c7.358-6.724,14.319-13.681,20.961-20.48c2.397-2.48,4.8-4.879,7.28-7.36
						c8.56-8.562,13.117-18.479,13.117-28.562c0-10.078-4.558-19.918-13.117-28.56l-23.523-23.52
						c-2.718-2.723-5.438-5.442-8.078-8.16c-5.199-5.358-10.64-10.879-16-15.84C135.945,8.639,126.348,4.4,116.266,4.4
						c-10.078,0-19.759,4.239-28.161,12.321L58.508,46.24C47.785,56.96,41.707,70.081,40.348,85.202
						c-1.521,18.879,1.918,38.957,10.961,63.276c13.839,37.521,34.718,72.32,65.679,109.521
						c37.598,44.961,82.879,80.399,134.559,105.361c19.681,9.359,46,20.32,75.281,22.238
						C328.668,385.76,330.508,385.842,332.266,385.842L332.266,385.842z M132.027,245.439
						c-29.441-35.439-49.281-68.479-62.32-103.84c-8.078-21.758-11.121-38.719-9.84-54.801c0.879-10.481,4.961-19.277,12.481-26.719
						l29.358-29.359c4.56-4.403,9.603-6.723,14.481-6.723c4.8,0,9.597,2.24,14.16,6.801c5.28,4.961,10.319,10.082,15.597,15.519
						c2.723,2.803,5.442,5.604,8.243,8.321l23.519,23.521c4.879,4.883,7.359,9.84,7.359,14.641s-2.48,9.762-7.359,14.641
						c-2.479,2.48-4.961,4.96-7.358,7.441c-7.282,7.437-14.243,14.396-21.763,21.199l-0.397,0.397
						c-6.56,6.563-5.603,12.882-4,17.681c0.078,0.24,0.16,0.401,0.237,0.641c6.082,14.641,14.563,28.562,27.68,45.121
						c23.762,29.199,48.641,51.922,76.161,69.357c3.44,2.16,6.961,4,10.479,5.682c3.121,1.602,6.082,3.039,8.724,4.723
						c0.315,0.16,0.559,0.316,0.879,0.479c2.642,1.279,5.121,1.922,7.68,1.922c6.397,0,10.479-4.082,11.841-5.441l29.521-29.52
						c4.559-4.561,9.52-6.962,14.318-6.962c6,0,10.801,3.685,13.922,6.962l47.6,47.602c9.439,9.438,9.357,19.597-0.238,29.597
						c-3.359,3.524-6.801,6.884-10.479,10.481c-5.521,5.357-11.281,10.883-16.48,17.121c-9.038,9.762-19.84,14.318-33.84,14.318
						c-1.358,0-2.801-0.082-4.16-0.16c-25.922-1.681-50-11.763-68-20.396C210.988,321.996,167.867,288.24,132.027,245.439
						L132.027,245.439z"/>
				</g>
			</g>
		</g>
	</g>
</g>
<g id="Слой_8" display="none">
	<g display="inline">
		<g>
			<g>
				<g>
					<defs>
						<rect id="SVGID_3_" x="40" y="-8" width="393.84" height="394.8"/>
					</defs>
					<clipPath id="SVGID_4_">
						<use xlink:href="#SVGID_3_"  overflow="visible"/>
					</clipPath>
					<path clip-path="url(#SVGID_4_)" fill="#E74B19" d="M332.266,385.842c19.68,0,35.521-6.801,48.401-20.801l0.32-0.32
						c4.559-5.521,9.758-10.48,15.199-15.762c3.68-3.6,7.52-7.277,11.121-11.039c16.879-17.604,16.797-39.923-0.16-56.961
						l-47.441-47.438c-8.078-8.4-17.762-12.883-27.922-12.883c-10.156,0-19.84,4.402-28.156,12.723L275.387,261.6
						c-2.56-1.52-5.199-2.801-7.759-4.078c-3.121-1.602-6.082-3.043-8.723-4.723c-25.758-16.32-49.121-37.68-71.438-65.117
						c-11.28-14.242-18.801-26.242-24.081-38.479c7.358-6.724,14.319-13.681,20.961-20.48c2.397-2.48,4.8-4.879,7.28-7.36
						c8.56-8.562,13.117-18.479,13.117-28.562c0-10.078-4.558-19.918-13.117-28.56l-23.523-23.52
						c-2.718-2.723-5.438-5.442-8.078-8.16c-5.199-5.358-10.64-10.879-16-15.84C135.945,8.639,126.348,4.4,116.266,4.4
						c-10.078,0-19.759,4.239-28.161,12.321L58.508,46.24C47.785,56.96,41.707,70.081,40.348,85.202
						c-1.521,18.879,1.918,38.957,10.961,63.276c13.839,37.521,34.718,72.32,65.679,109.521
						c37.598,44.961,82.879,80.399,134.559,105.361c19.681,9.359,46,20.32,75.281,22.238
						C328.668,385.76,330.508,385.842,332.266,385.842L332.266,385.842z M132.027,245.439
						c-29.441-35.439-49.281-68.479-62.32-103.84c-8.078-21.758-11.121-38.719-9.84-54.801c0.879-10.481,4.961-19.277,12.481-26.719
						l29.358-29.359c4.56-4.403,9.603-6.723,14.481-6.723c4.8,0,9.597,2.24,14.16,6.801c5.28,4.961,10.319,10.082,15.597,15.519
						c2.723,2.803,5.442,5.604,8.243,8.321l23.519,23.521c4.879,4.883,7.359,9.84,7.359,14.641s-2.48,9.762-7.359,14.641
						c-2.479,2.48-4.961,4.96-7.358,7.441c-7.282,7.437-14.243,14.396-21.763,21.199l-0.397,0.397
						c-6.56,6.563-5.603,12.882-4,17.681c0.078,0.24,0.16,0.401,0.237,0.641c6.082,14.641,14.563,28.562,27.68,45.121
						c23.762,29.199,48.641,51.922,76.161,69.357c3.44,2.16,6.961,4,10.479,5.682c3.121,1.602,6.082,3.039,8.724,4.723
						c0.315,0.16,0.559,0.316,0.879,0.479c2.642,1.279,5.121,1.922,7.68,1.922c6.397,0,10.479-4.082,11.841-5.441l29.521-29.52
						c4.559-4.561,9.52-6.962,14.318-6.962c6,0,10.801,3.685,13.922,6.962l47.6,47.602c9.439,9.438,9.357,19.597-0.238,29.597
						c-3.359,3.524-6.801,6.884-10.479,10.481c-5.521,5.357-11.281,10.883-16.48,17.121c-9.038,9.762-19.84,14.318-33.84,14.318
						c-1.358,0-2.801-0.082-4.16-0.16c-25.922-1.681-50-11.763-68-20.396C210.988,321.996,167.867,288.24,132.027,245.439
						L132.027,245.439z"/>
				</g>
			</g>
		</g>
	</g>
</g>
<g id="Слой_3" display="none">
	<polyline display="inline" fill="none" stroke="#272727" stroke-width="22" stroke-miterlimit="10" points="8,30 90,30 150,256 
		417,256 	"/>
	
		<line display="inline" fill="none" stroke="#272727" stroke-width="22" stroke-miterlimit="10" x1="201" y1="172" x2="440" y2="172"/>
	
		<line display="inline" fill="none" stroke="#272727" stroke-width="22" stroke-miterlimit="10" x1="201" y1="89" x2="464" y2="89"/>
	<circle display="inline" fill="#272727" cx="212.633" cy="329.25" r="34.526"/>
	<circle id="_x32_72727_2_" display="inline" fill="#272727" cx="355.867" cy="329.25" r="34.526"/>
</g>
<g id="Слой_7" display="none">
	<polyline display="inline" fill="none" stroke="#E74B19" stroke-width="22" stroke-miterlimit="10" points="8,30 90,30 150,256 
		417,256 	"/>
	
		<line display="inline" fill="none" stroke="#E74B19" stroke-width="22" stroke-miterlimit="10" x1="201" y1="172" x2="440" y2="172"/>
	
		<line display="inline" fill="none" stroke="#E74B19" stroke-width="22" stroke-miterlimit="10" x1="201" y1="89" x2="464" y2="89"/>
	<circle display="inline" fill="#E74B19" cx="212.633" cy="329.25" r="34.526"/>
	<circle display="inline" fill="#E74B19" cx="355.867" cy="329.25" r="34.526"/>
</g>
<g id="Слой_5" display="none">
	
		<line display="inline" fill="none" stroke="#272727" stroke-width="22" stroke-miterlimit="10" x1="52" y1="122" x2="344" y2="122"/>
	<line display="inline" fill="none" stroke="#272727" stroke-width="22" stroke-miterlimit="10" x1="52" y1="39" x2="419" y2="39"/>
	
		<line display="inline" fill="none" stroke="#272727" stroke-width="22" stroke-miterlimit="10" x1="53" y1="207" x2="269" y2="207"/>
</g>
<g id="Слой_6" display="none">
	
		<line display="inline" fill="none" stroke="#E74B19" stroke-width="22" stroke-miterlimit="10" x1="52" y1="122" x2="344" y2="122"/>
	<line display="inline" fill="none" stroke="#E74B19" stroke-width="22" stroke-miterlimit="10" x1="52" y1="39" x2="419" y2="39"/>
	
		<line display="inline" fill="none" stroke="#E74B19" stroke-width="22" stroke-miterlimit="10" x1="53" y1="207" x2="269" y2="207"/>
</g>
<g id="Слой_9" display="none">
	<g display="inline">
		<g>
			<g>
				<g>
					<defs>
						<rect id="SVGID_5_" x="56.52" y="17.08" width="360.96" height="361.92"/>
					</defs>
					<clipPath id="SVGID_6_">
						<use xlink:href="#SVGID_5_"  overflow="visible"/>
					</clipPath>
					<path clip-path="url(#SVGID_6_)" fill="#272727" d="M414.121,359.638l-87.68-87.679c23.52-27.039,37.758-62.321,37.758-100.879
						c0-84.879-69.039-153.842-153.84-153.842c-84.879,0-153.84,69.039-153.84,153.842c0,84.801,69.039,153.84,153.84,153.84
						c38.559,0,73.84-14.239,100.879-37.758l87.68,87.68c2.082,2.078,4.883,3.197,7.603,3.197c2.719,0,5.521-1.037,7.603-3.197
						C418.281,370.681,418.281,363.799,414.121,359.638L414.121,359.638z M78.04,171.08c0-72.961,59.359-132.238,132.242-132.238
						c72.957,0,132.237,59.359,132.237,132.238S283.238,303.4,210.281,303.4C137.398,303.4,78.04,244.041,78.04,171.08L78.04,171.08
						z"/>
				</g>
			</g>
		</g>
	</g>
</g>
<g id="Слой_10">
	<g>
		<path fill="#E74B19" d="M191.793,190.853l-5.655-5.656c1.517-1.744,2.436-4.02,2.436-6.505c0-5.475-4.453-9.924-9.922-9.924
			c-5.476,0-9.923,4.453-9.923,9.924c0,5.469,4.453,9.922,9.923,9.922c2.487,0,4.761-0.919,6.506-2.436l5.655,5.655
			c0.135,0.134,0.315,0.206,0.489,0.206c0.176,0,0.356-0.067,0.491-0.206C192.06,191.564,192.06,191.121,191.793,190.853
			L191.793,190.853z M170.116,178.691c0-4.707,3.828-8.53,8.529-8.53c4.706,0,8.53,3.829,8.53,8.53c0,4.7-3.824,8.533-8.53,8.533
			C173.944,187.224,170.116,183.396,170.116,178.691L170.116,178.691z"/>
		<path fill="#E74B19" d="M191.302,192.404c-0.273,0-0.546-0.114-0.746-0.313l-5.419-5.42c-1.832,1.488-4.122,2.306-6.486,2.306
			c-5.672,0-10.287-4.614-10.287-10.286c0-5.673,4.614-10.288,10.287-10.288c5.671,0,10.286,4.615,10.286,10.288
			c0,2.365-0.817,4.654-2.306,6.485l5.42,5.419c0.41,0.412,0.41,1.082,0,1.495C191.859,192.287,191.585,192.404,191.302,192.404z
			 M185.175,185.681l5.896,5.895c0.127,0.127,0.347,0.123,0.461,0.005c0.131-0.131,0.131-0.344,0.004-0.47l-5.895-5.896l0.223-0.256
			c1.513-1.739,2.347-3.965,2.347-6.267c0-5.271-4.288-9.561-9.559-9.561c-5.271,0-9.56,4.289-9.56,9.561
			c0,5.271,4.288,9.559,9.56,9.559c2.302,0,4.528-0.834,6.268-2.347L185.175,185.681z M178.645,187.588
			c-4.904,0-8.893-3.991-8.893-8.897c0-4.904,3.989-8.894,8.893-8.894s8.893,3.989,8.893,8.894
			C187.538,183.597,183.549,187.588,178.645,187.588z M178.645,170.525c-4.502,0-8.166,3.663-8.166,8.167
			c0,4.505,3.663,8.17,8.166,8.17s8.167-3.665,8.167-8.17C186.811,174.188,183.147,170.525,178.645,170.525z"/>
	</g>
</g>
</svg>
