<?xml version="1.0" encoding="utf-8"?>
<!-- Generator: Adobe Illustrator 16.2.0, SVG Export Plug-In . SVG Version: 6.00 Build 0)  -->
<!DOCTYPE svg PUBLIC "-//W3C//DTD SVG 1.1//EN" "http://www.w3.org/Graphics/SVG/1.1/DTD/svg11.dtd">
<svg version="1.1" id="Слой_1" xmlns:sketch="http://www.bohemiancoding.com/sketch/ns"
	 xmlns="http://www.w3.org/2000/svg" xmlns:xlink="http://www.w3.org/1999/xlink" x="0px" y="0px" width="21px" height="27px"
	 viewBox="6 3 21 27" enable-background="new 6 3 21 27" xml:space="preserve">
<title></title>
<desc></desc>
<g>
	<rect x="20" y="10" fill="#505050" width="1" height="17"/>
	<rect x="16" y="10" fill="#505050" width="1" height="17"/>
	<rect x="12" y="10" fill="#505050" width="1" height="17"/>
	<path fill="#505050" d="M23,7h-2V5c0-1.1-0.9-2-2-2h-5c-1.11,0-2,0.89-2,2v2h-2H6v1h2v18.99C8,28.65,9.33,30,11,30h11
		c1.66,0,3-1.34,3-3.01V8h2V7H23z M13,5c0-0.56,0.45-1,1-1h5c0.56,0,1,0.45,1,1v2h-7V5z M24,27.01C24,28.1,23.11,29,22.01,29H10.99
		C9.89,29,9,28.11,9,27.01V8h15V27.01z"/>
</g>
</svg>
